<svg xmlns="http://www.w3.org/2000/svg" xmlns:xlink="http://www.w3.org/1999/xlink" viewBox="0 0 203.84 231.74"><defs><style>.cls-1{fill:url(#linear-gradient);}.cls-2{fill:#fca737;}.cls-3{fill:#f7a64d;opacity:0.7;}.cls-4{fill:#d0d2d3;}.cls-5{fill:#ff5b4f;}.cls-6{fill:#5abb7b;}</style><linearGradient id="linear-gradient" x1="43.28" y1="86.99" x2="192.18" y2="180.48" gradientUnits="userSpaceOnUse"><stop offset="0" stop-color="#ffd467"/><stop offset="1" stop-color="#ffc436"/></linearGradient></defs><title>two_way sms</title><g id="Layer_2" data-name="Layer 2"><g id="Layer_1-2" data-name="Layer 1"><path class="cls-1" d="M139.83,218.74h-85A11.48,11.48,0,0,1,43.4,207.27V34.62A11.48,11.48,0,0,1,54.88,23.14h85a11.49,11.49,0,0,1,11.5,11.48V207.27a11.49,11.49,0,0,1-11.5,11.48Zm0,0"/><path class="cls-2" d="M107.48,200.92a10.12,10.12,0,1,1-10.11-10.11,10.12,10.12,0,0,1,10.11,10.11Zm0,0"/><rect class="cls-3" x="43.4" y="44.71" width="107.93" height="138.77"/><rect class="cls-2" x="85.69" y="32.19" width="23.33" height="5" rx="2.5" ry="2.5"/><circle class="cls-2" cx="10.17" cy="221.57" r="10.17"/><circle class="cls-4" cx="187.7" cy="16.14" r="16.14"/><path class="cls-5" d="M67.86,105.91H35.37a2.14,2.14,0,0,0-1,.22L23.5,111.56l-.14.06c-5,2.12-5-1.3-5-2.51,0-4.44,0,0,0-6.81V67.87a5.76,5.76,0,0,1,5.74-5.74H67.86a5.76,5.76,0,0,1,5.74,5.74v32.3A5.76,5.76,0,0,1,67.86,105.91Z"/><path class="cls-6" d="M127.19,166.26h32.5a2.14,2.14,0,0,1,1,.22l10.91,5.43.14.06c5,2.12,5-1.3,5-2.51,0-4.44,0,0,0-6.81V128.22a5.76,5.76,0,0,0-5.74-5.74H127.19a5.76,5.76,0,0,0-5.74,5.74v32.3A5.76,5.76,0,0,0,127.19,166.26Z"/></g></g></svg>