<svg xmlns="http://www.w3.org/2000/svg" xmlns:xlink="http://www.w3.org/1999/xlink" viewBox="0 0 215.26 199.31"><defs><style>.cls-1{fill:url(#linear-gradient);}.cls-2{fill:#ff5b4f;}.cls-3{fill:#fca737;}.cls-4{fill:url(#linear-gradient-2);}.cls-5{fill:#fff;}.cls-6{fill:#5abb7b;}.cls-7{fill:#d0d2d3;}</style><linearGradient id="linear-gradient" x1="62.19" y1="91.78" x2="183.02" y2="91.78" gradientUnits="userSpaceOnUse"><stop offset="0" stop-color="#ffc24e"/><stop offset="1" stop-color="#ffbb38"/></linearGradient><linearGradient id="linear-gradient-2" x1="14.48" y1="150.05" x2="137.58" y2="106.95" xlink:href="#linear-gradient"/></defs><title>bulk sms</title><g id="Layer_2" data-name="Layer 2"><g id="Layer_1-2" data-name="Layer 1"><path class="cls-1" d="M170.47,132.66H99.41a4.68,4.68,0,0,0-2.09.49L73.47,145l-.31.14c-11,4.63-10.88-2.83-10.9-5.49-.07-9.7,0,0-.07-14.88V49.49A12.6,12.6,0,0,1,74.75,36.93h95.72A12.6,12.6,0,0,1,183,49.49V120.1A12.6,12.6,0,0,1,170.47,132.66Z"/><circle class="cls-2" cx="13.23" cy="13.23" r="13.23"/><path class="cls-3" d="M148.83,153.1H77.78a4.68,4.68,0,0,0-2.09.49L51.83,165.46l-.31.14c-11,4.63-10.88-2.83-10.9-5.49-.07-9.7,0,0-.07-14.88V69.93A12.6,12.6,0,0,1,53.11,57.38h95.72a12.6,12.6,0,0,1,12.56,12.56v70.61A12.6,12.6,0,0,1,148.83,153.1Z"/><path class="cls-4" d="M124.83,176H53.78a4.68,4.68,0,0,0-2.09.49L27.83,188.38l-.31.14c-11,4.63-10.88-2.83-10.9-5.49-.07-9.7,0,0-.07-14.88V92.86A12.6,12.6,0,0,1,29.12,80.3h95.72a12.6,12.6,0,0,1,12.56,12.56v70.61A12.6,12.6,0,0,1,124.83,176Z"/><circle class="cls-5" cx="53.76" cy="124.99" r="8"/><circle class="cls-5" cx="106.26" cy="124.99" r="8"/><circle class="cls-5" cx="80.01" cy="124.99" r="8" transform="translate(-63.38 86.72) rotate(-42.43)"/><circle class="cls-6" cx="185.14" cy="189.42" r="9.89"/><circle class="cls-7" cx="204.15" cy="27.67" r="11.11"/></g></g></svg>